<svg t="1603701840382" class="icon" viewBox="0 0 1024 1024" version="1.1"
            xmlns="http://www.w3.org/2000/svg" p-id="13910" width="16" height="16">
            <path
              d="M1022.999242 968.000111c-9.449981-7.569985-18.539963-15.28997-26.919947-14.209972-151.989699 2.749995-234.449535-48.389904-246.189512-144.549713-10.639979-87.559826 16.219968-144.509714 91.00982-225.719553 8.259984-1.079998 44.529912-50.4299 60.159881-61.439878l43.579913-59.229883c101.719798-138.159726 74.079853-294.469416-29.219942-378.33925-55.28989-37.049927-125.129752-54.329892-199.009605-35.469929l-47.029907-38.169925c-27.099946-14.089972-61.469878-18.369964-83.259835 11.249978L45.64118 726.16059c-7.269986 9.88998-21.789957 29.619941-19.649962 47.109907L0.551269 981.170085c-4.069992 36.099928 14.709971 51.339898 46.979907 38.129924l193.479616-79.379842c16.609967-2.239996 39.469922-23.139954 46.749908-32.939935L828.189628 202.901628c22.899955-20.809959 18.629963-55.869889-9.609981-78.719844l-28.159944-22.839955c33.299934-4.489991 60.38988 9.629981 88.629824 32.519936 75.149851 60.979879 90.099821 183.479636 18.549964 290.899423-14.469971 19.689961-30.08994 30.739939-44.609912 50.4299-15.579969 10.969978-51.889897 60.30988-60.189881 61.439878-80.94984 99.809802-115.049772 166.64967-102.269797 271.619462 16.059968 131.21974 117.219768 197.639608 303.659398 199.179605 8.299984-1.119998 16.649967-2.279995 23.839953-12.089976 7.319985-9.88998 6.039988-18.579963 4.96999-27.339946zM231.400811 861.210323c-7.239986 9.88998-14.509971 19.809961-22.819954 20.849958l-152.899697 65.009872L78.101115 784.030476c7.239986-9.88998 13.449973-28.499944 13.449974-28.499944L631.990017 51.491928l139.879723 105.63979L231.400811 861.210323z"
              p-id="13911" fill="#bfbfbf"></path>
            <path
              d="M588.720103 92.001848L743.999795 209.221615 703.749875 264.001507 548.460183 146.741739zM165.000943 660.000722l140.99972 103.999793-42.999914 55.999889-137.999727-107.999785z"
              p-id="13912" fill="#bfbfbf"></path></svg>